<svg xmlns="http://www.w3.org/2000/svg" version="1.1" xmlns:xlink="http://www.w3.org/1999/xlink" xmlns:svgjs="http://svgjs.dev/svgjs" width="1500" height="287" viewBox="0 0 1500 287"><g transform="matrix(1,0,0,1,-0.9090909090909918,-1.7468819076670457)"><svg viewBox="0 0 396 76" data-background-color="#001f3f" preserveAspectRatio="xMidYMid meet" height="287" width="1500" xmlns="http://www.w3.org/2000/svg" xmlns:xlink="http://www.w3.org/1999/xlink"><g id="tight-bounds" transform="matrix(1,0,0,1,0.2400000000000091,0.4625889372219376)"><svg viewBox="0 0 395.52 75.07482212555615" height="75.07482212555615" width="395.52"><g><svg viewBox="0 0 395.52 75.07482212555615" height="75.07482212555615" width="395.52"><g><svg viewBox="0 0 508.5355003320934 96.52662882272102" height="75.07482212555615" width="395.52"><g transform="matrix(1,0,0,1,113.01550033209344,13.340510929912966)"><svg viewBox="0 0 395.52 69.84560696289509" height="69.84560696289509" width="395.52"><g id="textblocktransform"><svg viewBox="0 0 395.52 69.84560696289509" height="69.84560696289509" width="395.52" id="textblock"><g><svg viewBox="0 0 395.52 69.84560696289509" height="69.84560696289509" width="395.52"><g transform="matrix(1,0,0,1,0,0)"><svg width="395.52" viewBox="3.55 -37.9 218.28 38.55" height="69.84560696289509" data-palette-color="#ffffff"><path d="M3.55-1.5L3.55-37.45 7.55-37.9 7.55-23Q8.65-23.75 9.85-24.3L9.85-24.3Q10.85-24.8 12.1-25.23 13.35-25.65 14.6-25.65L14.6-25.65Q16.65-25.65 18.48-24.85 20.3-24.05 21.68-22.45 23.05-20.85 23.85-18.4 24.65-15.95 24.65-12.6L24.65-12.6Q24.65-8.9 23.63-6.38 22.6-3.85 20.88-2.3 19.15-0.75 16.95-0.05 14.75 0.65 12.45 0.65L12.45 0.65Q10.15 0.65 8.47 0.33 6.8 0 5.7-0.4L5.7-0.4Q4.4-0.9 3.55-1.5L3.55-1.5ZM7.55-19.4L7.55-3.7Q8.2-3.45 8.95-3.28 9.7-3.1 10.58-2.98 11.45-2.85 12.45-2.85L12.45-2.85Q14.75-2.85 16.3-3.5 17.85-4.15 18.75-5.4 19.65-6.65 20.03-8.43 20.4-10.2 20.4-12.4L20.4-12.4Q20.4-14.15 20.03-15.9 19.65-17.65 18.85-19.03 18.05-20.4 16.88-21.28 15.7-22.15 14.15-22.15L14.15-22.15Q13.1-22.15 11.95-21.73 10.8-21.3 9.8-20.75L9.8-20.75Q8.65-20.15 7.55-19.4L7.55-19.4ZM30.5 0L30.5-37.45 34.5-37.9 34.5 0 30.5 0ZM55.7-5.85L55.7-11.55Q54.7-11.5 53.8-11.45 52.9-11.4 52.02-11.33 51.15-11.25 50.45-11.15L50.45-11.15Q46.85-10.7 45.35-9.58 43.85-8.45 43.85-6.35L43.85-6.35Q43.85-4.6 44.92-3.73 46-2.85 47.75-2.85L47.75-2.85Q50.15-2.85 52.02-3.68 53.9-4.5 55.7-5.85L55.7-5.85ZM56.15 0.4L55.65-2.35Q53.3-1 51.27-0.18 49.25 0.65 46.9 0.65L46.9 0.65Q43.55 0.65 41.57-0.98 39.6-2.6 39.6-6.35L39.6-6.35Q39.6-8.3 40.6-9.75 41.6-11.2 43.22-12.18 44.85-13.15 46.9-13.7 48.95-14.25 51.1-14.4L51.1-14.4Q52-14.5 53.45-14.58 54.9-14.65 55.7-14.7L55.7-14.7Q55.7-16.45 55.6-17.82 55.5-19.2 55-20.18 54.5-21.15 53.52-21.65 52.55-22.15 50.75-22.15L50.75-22.15Q49.3-22.15 47.95-21.98 46.6-21.8 45.55-21.6L45.55-21.6Q44.3-21.35 43.25-21.05L43.25-21.05 42.45-24.5Q43.7-24.8 45.15-25.05L45.15-25.05Q46.4-25.3 48.05-25.48 49.7-25.65 51.6-25.65L51.6-25.65Q54.15-25.65 55.72-24.9 57.3-24.15 58.17-22.88 59.05-21.6 59.37-19.98 59.7-18.35 59.7-16.55L59.7-16.55 59.7-4.55Q59.7-3.85 59.72-3.08 59.75-2.3 59.82-1.55 59.9-0.8 60 0L60 0 56.15 0.4ZM83.14-24.85L82.34-21.5Q81.49-21.7 79.99-21.93 78.49-22.15 76.94-22.15L76.94-22.15Q74.69-22.15 73.27-21.25 71.84-20.35 71.04-18.93 70.24-17.5 69.94-15.78 69.64-14.05 69.64-12.4L69.64-12.4Q69.64-9.85 70.29-8.03 70.94-6.2 72.02-5.05 73.09-3.9 74.49-3.38 75.89-2.85 77.44-2.85L77.44-2.85Q78.49-2.85 79.47-2.98 80.44-3.1 81.27-3.28 82.09-3.45 82.84-3.7L82.84-3.7 83.64-0.35Q82.59-0.05 81.69 0.15 80.79 0.35 79.57 0.5 78.34 0.65 76.94 0.65L76.94 0.65Q74.19 0.65 72.04-0.05 69.89-0.75 68.42-2.3 66.94-3.85 66.17-6.35 65.39-8.85 65.39-12.45L65.39-12.45Q65.39-15.95 66.37-18.48 67.34-21 68.94-22.58 70.54-24.15 72.62-24.9 74.69-25.65 76.94-25.65L76.94-25.65Q78.14-25.65 79.27-25.53 80.39-25.4 81.24-25.25L81.24-25.25Q82.24-25.05 83.14-24.85L83.14-24.85ZM88.59 0L88.59-37.45 92.59-37.9 92.59-15.35 103.74-25.15 109.24-25.15 98.34-15.6 109.64 0 104.59 0 95.39-13.05 92.59-10.6 92.59 0 88.59 0ZM113.64 0L113.64-37.45 117.64-37.9 117.64-22Q119.14-23 120.61-23.75 122.09-24.5 123.64-25.08 125.19-25.65 126.64-25.65L126.64-25.65Q128.69-25.65 130.06-25.18 131.44-24.7 132.29-23.6 133.14-22.5 133.51-20.7 133.89-18.9 133.89-16.2L133.89-16.2 133.89 0 129.89 0 129.89-15.75Q129.89-17.25 129.84-18.43 129.79-19.6 129.41-20.43 129.04-21.25 128.26-21.7 127.49-22.15 126.09-22.15L126.09-22.15Q124.79-22.15 123.29-21.58 121.79-21 120.44-20.25 119.09-19.5 117.64-18.5L117.64-18.5 117.64 0 113.64 0ZM158.79-3.95L159.54-0.6Q158.39-0.25 157.16 0 155.94 0.25 154.46 0.45 152.99 0.65 151.39 0.65L151.39 0.65Q148.89 0.65 146.74-0.05 144.59-0.75 142.99-2.3 141.39-3.85 140.46-6.33 139.53-8.8 139.53-12.4L139.53-12.4Q139.53-15.65 140.44-18.13 141.34-20.6 142.91-22.28 144.49-23.95 146.61-24.8 148.74-25.65 151.24-25.65L151.24-25.65Q153.69-25.65 155.49-24.7 157.29-23.75 158.46-22.13 159.64-20.5 160.21-18.32 160.79-16.15 160.79-13.75L160.79-13.75 160.04-11.55 143.89-11.55Q143.89-10 144.28-8.45 144.69-6.9 145.66-5.65 146.64-4.4 148.21-3.63 149.78-2.85 152.14-2.85L152.14-2.85Q153.64-2.85 154.89-3.03 156.14-3.2 157.06-3.43 157.99-3.65 158.79-3.95L158.79-3.95ZM144.03-14.75L156.64-14.75Q156.64-15.1 156.49-16.3 156.34-17.5 155.78-18.8 155.24-20.1 154.09-21.13 152.94-22.15 151.03-22.15L151.03-22.15Q148.94-22.15 147.59-21.28 146.24-20.4 145.44-19.2 144.64-18 144.34-16.75 144.03-15.5 144.03-14.75L144.03-14.75ZM180.23-5.85L180.23-11.55Q179.23-11.5 178.33-11.45 177.43-11.4 176.56-11.33 175.68-11.25 174.98-11.15L174.98-11.15Q171.38-10.7 169.88-9.58 168.38-8.45 168.38-6.35L168.38-6.35Q168.38-4.6 169.46-3.73 170.53-2.85 172.28-2.85L172.28-2.85Q174.68-2.85 176.56-3.68 178.43-4.5 180.23-5.85L180.23-5.85ZM180.68 0.4L180.18-2.35Q177.83-1 175.81-0.18 173.78 0.65 171.43 0.65L171.43 0.65Q168.08 0.65 166.11-0.98 164.13-2.6 164.13-6.35L164.13-6.35Q164.13-8.3 165.13-9.75 166.13-11.2 167.76-12.18 169.38-13.15 171.43-13.7 173.48-14.25 175.63-14.4L175.63-14.4Q176.53-14.5 177.98-14.58 179.43-14.65 180.23-14.7L180.23-14.7Q180.23-16.45 180.13-17.82 180.03-19.2 179.53-20.18 179.03-21.15 178.06-21.65 177.08-22.15 175.28-22.15L175.28-22.15Q173.83-22.15 172.48-21.98 171.13-21.8 170.08-21.6L170.08-21.6Q168.83-21.35 167.78-21.05L167.78-21.05 166.98-24.5Q168.23-24.8 169.68-25.05L169.68-25.05Q170.93-25.3 172.58-25.48 174.23-25.65 176.13-25.65L176.13-25.65Q178.68-25.65 180.26-24.9 181.83-24.15 182.71-22.88 183.58-21.6 183.91-19.98 184.23-18.35 184.23-16.55L184.23-16.55 184.23-4.55Q184.23-3.85 184.26-3.08 184.28-2.3 184.36-1.55 184.43-0.8 184.53 0L184.53 0 180.68 0.4ZM191.33 0L191.33-21.1Q191.33-22.25 191.08-24.7L191.08-24.7 194.78-25.2 195.18-21.55 195.23-21.55Q196.13-22.7 196.98-23.55 197.83-24.4 198.76-25.03 199.68-25.65 200.53-25.65L200.53-25.65Q201.68-25.7 203.73-25.4L203.73-25.4 202.83-21.55Q201.18-21.85 200.53-21.8L200.53-21.8Q199.68-21.8 198.73-21 197.78-20.2 197.08-19.3L197.08-19.3Q196.18-18.2 195.33-16.8L195.33-16.8 195.33 0 191.33 0ZM209.98-32.15L213.98-32.65 213.98-25.15 221.23-25.15 221.23-21.9 213.98-21.9 213.98-8.55Q213.98-6.9 214.05-5.8 214.13-4.7 214.38-4.05 214.63-3.4 215.08-3.13 215.53-2.85 216.23-2.85L216.23-2.85Q218.13-2.9 220.63-4.25L220.63-4.25 221.83-1.2Q220.18-0.1 218.75 0.28 217.33 0.65 215.93 0.65L215.93 0.65Q212.63 0.65 211.3-1.23 209.98-3.1 209.98-7.45L209.98-7.45 209.98-21.9 205.38-21.9 205.38-25.15 209.98-25.15 209.98-32.15Z" opacity="1" transform="matrix(1,0,0,1,0,0)" fill="#ffffff" class="wordmark-text-0" data-fill-palette-color="primary" id="text-0"></path></svg></g></svg></g></svg></g></svg></g><g><svg viewBox="0 0 96.52662882272102 96.52662882272102" height="96.52662882272102" width="96.52662882272102"><g><svg xmlns="http://www.w3.org/2000/svg" xmlns:xlink="http://www.w3.org/1999/xlink" version="1.1" x="0" y="0" viewBox="5 5 90 90" style="enable-background:new 0 0 100 100;" xml:space="preserve" height="96.52662882272102" width="96.52662882272102" class="icon-icon-0" data-fill-palette-color="accent" id="icon-0"><path d="M53.75 5C42.731 5 32.373 9.291 24.582 17.082L17.082 24.582C9.291 32.373 5 42.731 5 53.75S9.291 75.127 17.082 82.918 35.231 95 46.25 95 67.627 90.709 75.418 82.918L82.918 75.418C90.709 67.627 95 57.269 95 46.25S90.709 24.873 82.918 17.082 64.769 5 53.75 5M71.883 79.383C57.748 93.516 34.752 93.516 20.617 79.383 6.483 65.249 6.483 42.251 20.617 28.117 27.684 21.051 36.967 17.516 46.25 17.516S64.815 21.05 71.883 28.117C86.017 42.251 86.017 65.249 71.883 79.383M86.858 60.994A42 42 0 0 0 87.5 53.75C87.5 42.731 83.209 32.373 75.418 24.582S57.269 12.5 46.25 12.5C43.795 12.5 41.375 12.725 39.007 13.142A36.3 36.3 0 0 1 53.75 10.016C63.033 10.016 72.315 13.55 79.383 20.617 90.281 31.516 92.767 47.682 86.858 60.994" fill="#bfb5b5" data-fill-palette-color="accent"></path><path d="M46.25 22.5A31.07 31.07 0 0 0 28.74 27.88 2 2 0 0 0 28.494 28.055C20.349 33.701 15 43.11 15 53.75 15 70.981 29.019 85 46.25 85 56.891 85 66.302 79.65 71.948 71.503 72.009 71.424 72.069 71.346 72.12 71.262A31.1 31.1 0 0 0 77.5 53.75C77.5 36.519 63.481 22.5 46.25 22.5M46.25 80C31.775 80 20 68.225 20 53.75 20 49.514 21.015 45.512 22.805 41.966A31.5 31.5 0 0 0 22.5 46.25C22.5 63.481 36.519 77.5 53.75 77.5 55.193 77.5 56.622 77.389 58.034 77.195A26.1 26.1 0 0 1 46.25 80M68.171 68.166A26.1 26.1 0 0 1 53.75 72.5C39.275 72.5 27.5 60.725 27.5 46.25A26.1 26.1 0 0 1 31.834 31.829 26.1 26.1 0 0 1 46.25 27.5C60.725 27.5 72.5 39.275 72.5 53.75A26.1 26.1 0 0 1 68.171 68.166" fill="#bfb5b5" data-fill-palette-color="accent"></path></svg></g></svg></g></svg></g></svg></g><defs></defs></svg><rect width="395.52" height="75.07482212555615" fill="none" stroke="none" visibility="hidden"></rect></g></svg></g></svg>